<svg width="85" height="28" viewBox="0 0 85 28" fill="none" xmlns="http://www.w3.org/2000/svg">
<g clip-path="url(#clip0_15389_5187)">
<path fill-rule="evenodd" clip-rule="evenodd" d="M14.0941 0.957825C14.0663 0.957825 14.0385 0.957825 14.0107 0.957825C10.2773 0.957825 6.68526 1.83045 3.20434 3.59088C1.79159 6.97174 0.994896 10.4086 0.953209 13.9155C0.897625 17.3943 1.60979 20.9572 3.18929 24.5912C6.82422 26.1824 10.4591 26.9991 14.0941 27.0422C17.729 26.9991 21.3639 26.1824 24.9977 24.5912C26.5784 20.9572 27.2905 17.3943 27.2349 13.9155C27.1933 10.4086 26.3966 6.97174 24.9838 3.59088C21.5029 1.83045 17.9108 0.957825 14.1775 0.957825C14.1497 0.957825 14.1219 0.957825 14.0941 0.957825Z" fill="#FEFEFE"/>
<path d="M2.61669 2.81738C6.27942 0.929795 10.0811 0 14.0102 0C14.0379 0 14.0657 0 14.0935 0C14.1213 0 14.1491 0 14.1769 0C18.106 0 21.9076 0.929795 25.5704 2.81738L25.795 3.05654C27.29 6.60539 28.1434 10.2254 28.1851 13.9014C28.1851 13.9714 28.1851 14.0274 28.1851 14.0986V14.3517C28.1712 17.8866 27.4162 21.4926 25.795 25.1546L25.5426 25.3938C21.727 27.0982 17.9103 27.9568 14.0935 28C10.2768 27.9568 6.46006 27.0982 2.64449 25.3938L2.39204 25.1546C0.770858 21.4926 0.015849 17.8866 0.00195312 14.3517V14.0986C0.00195312 14.0274 0.00195312 13.9714 0.00195312 13.9014C0.0436408 10.2254 0.897079 6.60539 2.39204 3.05654L2.61669 2.81738ZM14.0935 0.957793C14.0657 0.957793 14.0379 0.957793 14.0102 0.957793C10.2768 0.957793 6.68471 1.83042 3.2038 3.59085C1.79105 6.97171 0.99435 10.4086 0.952663 13.9154C0.897079 17.3943 1.60924 20.9571 3.18874 24.5911C6.82367 26.1824 10.4586 26.999 14.0935 27.0422C17.7285 26.999 21.3634 26.1824 24.9972 24.5911C26.5778 20.9571 27.29 17.3943 27.2344 13.9154C27.1927 10.4086 26.396 6.97171 24.9833 3.59085C21.5023 1.83042 17.9103 0.957793 14.1769 0.957793C14.1491 0.957793 14.1213 0.957793 14.0935 0.957793Z" fill="#003399"/>
<path fill-rule="evenodd" clip-rule="evenodd" d="M14.3439 21.8169C14.1482 19.1267 14.2744 16.3233 13.4777 13.7602C12.7366 11.3663 9.92617 10.0002 9.87058 7.36601C9.815 5.30926 11.3667 2.92936 14.2744 2.92936C17.0003 2.91536 18.6922 4.91495 18.8879 7.14085C19.1252 9.71791 16.0218 11.4503 15.2112 13.9014C14.3717 16.4085 14.6102 19.1827 14.3439 21.8169Z" fill="#003399"/>
<path fill-rule="evenodd" clip-rule="evenodd" d="M15.4207 21.1683C15.3084 18.8304 15.3084 16.5917 15.9522 14.6049C16.6644 12.3522 18.1466 10.4506 20.4116 9.83111C21.9633 9.4088 24.2411 11.2392 23.8787 13.1128C23.5706 14.6201 22.0745 16.3945 19.6705 16.5917C18.5519 16.6897 18.0771 17.5915 17.3777 18.1129C20.5089 17.8026 22.5365 16.5637 23.9481 15.2676C24.1577 16.3653 24.2978 18.2109 23.4444 18.8444C21.7676 20.0414 20.2159 19.0696 18.2439 19.633C17.1403 19.9574 16.4548 20.662 15.4207 21.1683Z" fill="#003399"/>
<path fill-rule="evenodd" clip-rule="evenodd" d="M13.284 21.1683C13.4091 18.8304 13.3952 16.5917 12.7664 14.6049C12.0531 12.3522 10.572 10.4506 8.307 9.83111C6.75529 9.4088 4.46247 11.2392 4.83997 13.1128C5.148 14.6201 6.64296 16.3945 9.04811 16.5917C10.1528 16.6897 10.6415 17.5915 11.3409 18.1129C8.19467 17.8026 6.18208 16.5637 4.7705 15.2676C4.5609 16.3653 4.42078 18.2109 5.27306 18.8444C6.95099 20.0414 8.5027 19.0696 10.4736 19.633C11.5783 19.9574 12.2488 20.662 13.284 21.1683Z" fill="#003399"/>
<path fill-rule="evenodd" clip-rule="evenodd" d="M20.7341 24.6471V24.2668L21.0143 24.1968L20.7341 23.7745V23.0699L21.9928 24.8303L21.5458 24.9434L21.2378 24.506L20.7341 24.6471ZM20.7341 23.0699V23.7745L20.5384 23.4922L20.455 24.338L20.7341 24.2668V24.6471L20.4133 24.7183L20.3566 25.2386L19.9096 25.3518L20.2037 23.0559L20.6507 22.9427L20.7341 23.0699ZM16.5688 25.8732V25.5069H16.6661C16.8201 25.4929 16.9185 25.4789 16.9602 25.4638C17.0158 25.4498 17.0714 25.4078 17.1003 25.3658C17.142 25.3098 17.1559 25.2526 17.1559 25.1826C17.142 25.1126 17.1281 25.0554 17.0853 25.0134C17.0575 24.9714 17.0019 24.9434 16.9463 24.9294C16.8907 24.9154 16.7645 24.9154 16.5688 24.9294V24.5631C16.68 24.5631 16.7506 24.5491 16.7784 24.5491C16.8479 24.5351 16.9046 24.492 16.9463 24.45C16.988 24.408 17.0019 24.352 16.988 24.2808C16.988 24.2108 16.9602 24.1548 16.9185 24.1256C16.8907 24.0836 16.834 24.0556 16.7506 24.0556C16.7228 24.0556 16.6661 24.0556 16.5688 24.0696V23.7033C16.7228 23.6893 16.834 23.6893 16.9046 23.7033C16.988 23.7033 17.0714 23.7325 17.142 23.7745C17.2115 23.8025 17.2671 23.8585 17.3238 23.9285C17.3655 23.9996 17.3933 24.0836 17.4072 24.1828C17.4211 24.2808 17.3933 24.38 17.3516 24.464C17.3099 24.5491 17.2393 24.6191 17.142 24.6751C17.281 24.7043 17.3933 24.7603 17.4628 24.8443C17.5473 24.9294 17.589 25.0274 17.6029 25.1546C17.6029 25.2526 17.589 25.3518 17.5612 25.4498C17.5195 25.5489 17.4628 25.6189 17.3933 25.6901C17.3099 25.7461 17.2254 25.7881 17.1142 25.8161C17.0436 25.8301 16.8618 25.8441 16.5966 25.8732H16.5688ZM19.2102 24.6891L19.6444 24.7463C19.6166 24.9854 19.546 25.1826 19.4209 25.3238C19.2947 25.4498 19.1129 25.5489 18.8894 25.5909C18.6092 25.6329 18.3579 25.5769 18.1483 25.4218C17.9248 25.2526 17.7986 25.0134 17.7291 24.6751C17.6724 24.324 17.7152 24.0276 17.8681 23.8025C18.0082 23.5773 18.2317 23.4362 18.5258 23.3802C18.791 23.337 19.0006 23.3802 19.1963 23.5062C19.3086 23.5773 19.4059 23.6893 19.4765 23.8585L19.0712 24.0276C19.0295 23.9285 18.9589 23.8445 18.8755 23.8025C18.7771 23.7465 18.6798 23.7325 18.5675 23.7465C18.4135 23.7745 18.3023 23.8585 18.2178 23.9856C18.1344 24.1256 18.1205 24.31 18.1622 24.5631C18.2178 24.8303 18.3023 25.0134 18.4135 25.1126C18.5258 25.2106 18.6659 25.2526 18.8188 25.2246C18.9311 25.1966 19.0156 25.1406 19.0851 25.0554C19.1546 24.9714 19.1963 24.8443 19.2102 24.6891ZM16.5688 23.7033V24.0696C16.5132 24.0696 16.4565 24.0836 16.387 24.0836L16.1357 24.1128L16.1774 24.6051L16.4704 24.5771C16.4982 24.5771 16.541 24.5771 16.5688 24.5631V24.9294C16.5688 24.9294 16.5688 24.9294 16.5549 24.9294L16.2191 24.9574L16.2608 25.5349L16.5688 25.5069V25.8732L15.8694 25.9432L15.6737 23.7885L16.5271 23.7185C16.541 23.7033 16.5549 23.7033 16.5688 23.7033ZM13.8707 25.1266V24.7603C13.9679 24.7603 14.0247 24.7463 14.0664 24.7323C14.122 24.7183 14.1636 24.6751 14.2065 24.6331C14.2343 24.5771 14.2482 24.5211 14.2482 24.464C14.2621 24.38 14.2343 24.324 14.1914 24.2668C14.1497 24.2108 14.0942 24.1828 14.0247 24.1688C13.9818 24.1688 13.9402 24.1548 13.8707 24.1548V23.7885C14.0803 23.7885 14.2065 23.8025 14.276 23.8305C14.4022 23.8585 14.4995 23.9285 14.584 24.0416C14.6674 24.1548 14.7091 24.2948 14.6952 24.464C14.6952 24.5911 14.6674 24.7043 14.6257 24.8023C14.5689 24.8863 14.5134 24.9574 14.4439 25.0134C14.3593 25.0554 14.2899 25.0834 14.2065 25.1126C14.122 25.1266 14.0108 25.1266 13.8707 25.1266ZM13.8707 23.7885V24.1548C13.829 24.1548 13.7722 24.1548 13.7028 24.1548L13.4932 24.1408V24.7603H13.7167C13.7722 24.7603 13.829 24.7603 13.8707 24.7603V25.1266C13.8429 25.1266 13.8 25.1266 13.7583 25.1266H13.4793L13.4654 25.9432L13.0311 25.9292L13.074 23.7745L13.7583 23.7885C13.8 23.7885 13.8429 23.7885 13.8707 23.7885ZM9.83044 24.9154V24.2528C9.95666 24.2808 10.04 24.2808 10.0817 24.2808C10.1385 24.2668 10.1802 24.2528 10.2218 24.2108C10.2496 24.1688 10.2774 24.1256 10.2913 24.0556C10.3052 23.9856 10.2913 23.9285 10.2635 23.8725C10.2357 23.8165 10.1802 23.7885 10.1095 23.7605C10.0817 23.7465 9.98445 23.7325 9.83044 23.7033V23.337L10.0122 23.3662C10.2357 23.4082 10.3898 23.4502 10.487 23.5062C10.5855 23.5633 10.6549 23.6473 10.6966 23.7605C10.7395 23.8585 10.7534 23.9856 10.7256 24.1128C10.6966 24.2668 10.6271 24.394 10.516 24.478C10.4175 24.5631 10.2635 24.6051 10.0678 24.6051C10.1524 24.6751 10.2218 24.7463 10.2635 24.8163C10.3191 24.9014 10.3759 25.0274 10.4453 25.2106L10.6271 25.6761L10.1234 25.5769L9.89992 25.0554C9.87213 25.0134 9.85823 24.9574 9.83044 24.9154ZM11.0602 23.5773L11.4794 23.6193L11.3821 24.7883C11.3683 24.9714 11.3683 25.0986 11.3683 25.1406C11.3821 25.2386 11.4238 25.3098 11.4794 25.3658C11.5501 25.4358 11.6334 25.4638 11.7597 25.4789C11.8859 25.4929 11.9831 25.4638 12.0387 25.4218C12.1094 25.3798 12.1511 25.3238 12.1788 25.2526C12.1927 25.1826 12.2066 25.0554 12.2205 24.8863L12.319 23.6893L12.7521 23.7325L12.6548 24.8583C12.6409 25.1266 12.6119 25.3098 12.5702 25.4078C12.5425 25.5069 12.4869 25.6049 12.4301 25.6609C12.3607 25.7321 12.2634 25.7881 12.1511 25.8161C12.0526 25.8592 11.9137 25.8592 11.7458 25.8441C11.5362 25.8301 11.3821 25.7881 11.2837 25.7321C11.1864 25.6761 11.1019 25.6049 11.0463 25.5349C10.9907 25.4498 10.963 25.3658 10.9491 25.2818C10.9352 25.1546 10.9352 24.9714 10.9491 24.7323L11.0602 23.5773ZM7.66384 24.2108L7.74722 23.8585L8.65624 24.0976L8.43275 24.9294C8.32042 24.9994 8.1803 25.0414 7.9846 25.0554C7.8028 25.0694 7.63605 25.0554 7.46814 25.0134C7.24349 24.9574 7.06284 24.8583 6.93662 24.7323C6.79651 24.5911 6.71313 24.422 6.67144 24.2388C6.64249 24.0416 6.64249 23.8445 6.69923 23.6473C6.75482 23.4362 6.85209 23.253 6.99221 23.0979C7.11843 22.9579 7.28634 22.8727 7.48204 22.8307C7.63605 22.7887 7.8167 22.8027 8.01355 22.8587C8.26484 22.9287 8.46054 23.0279 8.57171 23.183C8.68403 23.323 8.73961 23.5062 8.72572 23.7033L8.29263 23.6753C8.29263 23.5633 8.26484 23.4642 8.1942 23.3802C8.12472 23.309 8.04135 23.239 7.91513 23.211C7.73332 23.169 7.57931 23.183 7.43919 23.267C7.30023 23.3522 7.2018 23.5202 7.13232 23.7465C7.06284 23.9996 7.07674 24.1968 7.14622 24.352C7.22959 24.506 7.35581 24.6051 7.52372 24.6471C7.62099 24.6751 7.70553 24.6751 7.8028 24.6751C7.90123 24.6611 7.9846 24.6331 8.06914 24.6051L8.13862 24.338L7.66384 24.2108ZM9.83044 23.337L9.10322 23.211L8.73961 25.3378L9.15881 25.4078L9.31282 24.5211L9.41125 24.5351C9.50852 24.5491 9.57916 24.5771 9.62085 24.5911C9.66253 24.6191 9.69032 24.6611 9.73201 24.7043C9.74591 24.7463 9.78875 24.8163 9.83044 24.9154V24.2528C9.78875 24.2528 9.74591 24.2388 9.69033 24.2388L9.38346 24.1828L9.46683 23.6473L9.80265 23.7033C9.81655 23.7033 9.83044 23.7033 9.83044 23.7033V23.337Z" fill="#003399"/>
<path fill-rule="evenodd" clip-rule="evenodd" d="M76.4572 20.704V16.7317H78.1907V9.74595L76.4572 13.2388V4.52067H83.265L84.9985 24.6052H78.1907V20.704H76.4572ZM76.4572 4.52067V13.2388L74.7237 16.7317H76.4572V20.704H73.1859L71.8438 24.394H67.6217V19.8022L72.3324 9.56279H71.3678L74.052 4.52067H76.4572ZM67.6217 11.2112L69.7327 6.1691L67.6217 4.98615V11.2112ZM50.832 9.28164C50.9304 8.70416 50.9304 8.14068 50.832 7.60521V9.28164ZM67.6217 4.98615V11.2112L67.3426 11.8867C63.1762 8.88732 57.025 11.6195 56.6752 14.7881C56.3267 18.0978 58.8291 20.774 65.2177 18.7744L63.0222 24.6892C54.5932 25.633 51.3218 22.2673 50.832 18.3381V16.1122C50.9582 15.0844 51.2234 14.0846 51.587 13.1548C55.7396 2.76024 62.4768 5.09814 65.0359 4.90098L65.4134 3.74603L67.6217 4.98615ZM67.6217 19.8022L65.5107 24.394H67.6217V19.8022ZM43.2553 24.2668C47.7703 23.3662 52.2019 17.9006 47.7564 13.5491C49.4899 12.6193 50.5668 10.9441 50.832 9.28164V7.60521C50.5252 5.87278 49.1969 4.46467 46.6945 4.42267L43.2553 4.35151V8.21068H44.6808C46.2047 8.21068 46.009 12.183 44.1076 12.183H43.2553V15.2256C45.3107 15.6199 44.5835 18.4921 43.2553 19.3799V24.2668ZM50.832 16.1122V18.3381C50.7486 17.6055 50.7486 16.8588 50.832 16.1122ZM37.2997 4.22551L34.5182 9.66195L35.7619 9.56279L32.4072 24.394H42.0116C42.4308 24.394 42.8361 24.352 43.2553 24.2668V19.3799C43.0179 19.549 42.7516 19.647 42.4864 19.647H39.0332L40.1797 15.1824H42.7655C42.9473 15.1824 43.1152 15.1964 43.2553 15.2256V12.183H40.8501L41.8147 8.21068H43.2553V4.35151L37.2997 4.22551Z" fill="#003399"/>
</g>
<defs>
<clipPath id="clip0_15389_5187">
<rect width="85" height="28" fill="white"/>
</clipPath>
</defs>
</svg>
