<svg width="45" height="38" viewBox="0 0 45 38" fill="none" xmlns="http://www.w3.org/2000/svg">
<g clip-path="url(#clip0_15389_5196)">
<path fill-rule="evenodd" clip-rule="evenodd" d="M8.94395 3.87545C8.94395 1.73525 10.6866 0 12.836 0H32.1897C34.339 0 36.0801 1.73525 36.0801 3.87545V23.1467C36.0801 25.2869 34.339 27.0222 32.1897 27.0222H12.836C10.6866 27.0222 8.94395 25.2869 8.94395 23.1467V3.87545ZM13.6779 24.3742C12.5326 24.3742 11.6032 23.4489 11.6032 22.3068V4.72014C11.6032 3.57965 12.5326 2.65429 13.6779 2.65429H16.0449C19.1649 2.65429 21.4747 5.80052 19.4794 7.79045L13.6922 13.5609L18.6597 18.743C21.068 21.2549 18.2467 24.3742 15.5747 24.3742H13.6779ZM21.1903 2.65429H23.1904C26.3088 2.65429 28.6186 5.80052 26.6249 7.79045L20.8361 13.5609L31.4764 24.3695L20.2483 24.3679C22.6598 24.3679 24.1832 20.3264 21.6018 17.6499L17.6589 13.5609L22.2483 8.85027C24.7202 6.31303 22.9267 3.04816 21.1903 2.65429ZM33.4193 22.3068L24.8028 13.5609L29.3938 8.85027C31.8656 6.31303 30.0705 3.04816 28.3342 2.65429H31.3398C32.4868 2.65429 33.4161 3.57965 33.4161 4.72014L33.4193 22.3068ZM1.77943 35.1891V36.7646H2.48477C2.85173 36.7646 3.12973 36.695 3.31877 36.559C3.50781 36.4229 3.60313 36.2236 3.60313 35.9626C3.60313 35.7048 3.51576 35.5118 3.3426 35.3821C3.16944 35.254 2.91051 35.1891 2.56578 35.1891H1.77943ZM1.77943 32.5032V34.0012H2.32432C2.70399 34.0012 2.98676 33.9363 3.1758 33.8098C3.36325 33.6816 3.45698 33.4871 3.45698 33.2261C3.45698 32.9888 3.36961 32.8101 3.19168 32.6867C3.01535 32.5649 2.75324 32.5032 2.4101 32.5032H1.77943ZM0.0224609 31.2947H2.77865C3.5936 31.2947 4.20679 31.4402 4.61664 31.7313C5.02809 32.0239 5.23301 32.4573 5.23301 33.0331C5.23301 33.4191 5.12499 33.7417 4.91053 33.998C4.69607 34.2543 4.38312 34.4393 3.97168 34.5516C4.43396 34.6371 4.78821 34.8174 5.03603 35.0926C5.28385 35.3679 5.40776 35.719 5.40776 36.1461C5.40776 36.7757 5.18218 37.2423 4.72943 37.546C4.27828 37.8481 3.58248 38 2.64204 38H0.0224609V31.2947H0.0224609ZM9.25213 32.7911L8.38 35.3046H10.0957L9.25213 32.7911ZM8.20525 31.2947H10.3705L12.9202 38H11.0012L10.523 36.5795H7.93043L7.42844 38H5.6524L8.20525 31.2947ZM13.3078 31.2947H15.5493L17.4985 35.3157C17.5652 35.4501 17.643 35.6383 17.732 35.8788C17.8194 36.1192 17.9179 36.415 18.0243 36.7646C17.9687 36.434 17.9258 36.1303 17.8988 35.8535C17.8718 35.5767 17.8591 35.3236 17.8591 35.0942V31.2947H19.4794V38H17.2475L15.222 33.8335C15.1283 33.6421 15.0409 33.4333 14.9615 33.2087C14.8837 32.9841 14.8106 32.7389 14.7439 32.4747C14.8074 32.8749 14.8535 33.2419 14.8837 33.5772C14.9138 33.911 14.9297 34.2068 14.9297 34.4615V38H13.3078V31.2947ZM20.7535 31.2947H22.5486V34.1926L24.6344 31.2947H26.6439L24.1705 34.3761L26.8965 38H24.6662L22.5486 34.8901V38H20.7535V31.2947ZM32.1198 35.1891V36.7646H32.8267C33.1921 36.7646 33.4701 36.695 33.6591 36.559C33.8498 36.4229 33.9435 36.2236 33.9435 35.9626C33.9435 35.7048 33.8577 35.5118 33.683 35.3821C33.5098 35.254 33.2509 35.1891 32.9061 35.1891H32.1198ZM32.1198 32.5032V34.0012H32.6647C33.0443 34.0012 33.3287 33.9363 33.5162 33.8098C33.7036 33.6816 33.7989 33.4871 33.7989 33.2261C33.7989 32.9888 33.71 32.8101 33.532 32.6867C33.3557 32.5649 33.0952 32.5032 32.7505 32.5032H32.1198ZM30.3628 31.2947H33.1206C33.9355 31.2947 34.5471 31.4402 34.9586 31.7313C35.3684 32.0239 35.5734 32.4573 35.5734 33.0331C35.5734 33.4191 35.4669 33.7417 35.2525 33.998C35.0364 34.2543 34.7235 34.4393 34.3136 34.5516C34.7743 34.6371 35.1286 34.8174 35.3764 35.0926C35.6242 35.3679 35.7481 35.719 35.7481 36.1461C35.7481 36.7757 35.5225 37.2423 35.0714 37.546C34.6202 37.8481 33.9228 38 32.9824 38H30.3628V31.2947ZM38.5647 32.4747V34.1941H39.1953C39.583 34.1941 39.8753 34.123 40.0691 33.9838C40.2629 33.843 40.3598 33.6326 40.3598 33.3526C40.3598 33.0505 40.2517 32.829 40.0357 32.6867C39.8197 32.5443 39.4781 32.4747 39.0095 32.4747H38.5647ZM36.8093 31.2947H39.4845C40.3757 31.2947 41.0365 31.4386 41.4686 31.7265C41.9007 32.0144 42.1167 32.4526 42.1167 33.041C42.1167 33.476 42.0024 33.8335 41.7752 34.1135C41.5464 34.3935 41.2176 34.5801 40.7871 34.675C41.1414 34.8031 41.4257 35.1701 41.6418 35.7744L42.4456 38H40.5742L39.9817 36.1651C39.8864 35.8693 39.7577 35.6652 39.5925 35.5513C39.4289 35.439 39.1731 35.3821 38.8252 35.3821H38.5647V38H36.8093V31.2947ZM43.1843 31.2947H44.9794V38H43.1843V31.2947Z" fill="#1F4396"/>
</g>
<defs>
<clipPath id="clip0_15389_5196">
<rect width="45" height="38" fill="white"/>
</clipPath>
</defs>
</svg>
