<svg width="174" height="27" viewBox="0 0 174 27" fill="none" xmlns="http://www.w3.org/2000/svg">
<path d="M11.6523 0.924667C12.4727 0.924667 13.2109 1.06403 13.8672 1.34274C14.5469 1.59822 15.168 1.88855 15.7305 2.2137C16.3164 2.53887 16.8672 2.8408 17.3828 3.11952C17.8984 3.375 18.4258 3.50274 18.9648 3.50274C19.3867 3.47952 19.8672 3.42145 20.4062 3.32855C20.875 3.23564 21.4141 3.09629 22.0234 2.91048C22.6562 2.70145 23.3594 2.39951 24.1328 2.00468C23.3594 2.74791 22.7266 3.375 22.2344 3.88597C21.7656 4.37371 21.4023 4.78017 21.1445 5.10533C20.8398 5.47694 20.6172 5.76727 20.4766 5.9763C20.3359 6.23178 20.125 6.61501 19.8438 7.12598C19.5859 7.59049 19.2344 8.2176 18.7891 9.00728C18.3438 9.77373 17.7812 10.7841 17.1016 12.0383C17.1016 10.4357 16.9375 9.19308 16.6094 8.3105C16.3047 7.42792 15.9648 6.75436 15.5898 6.28984C15.1445 5.75565 14.6406 5.41888 14.0781 5.27952C13.5625 5.20985 13.0469 5.30275 12.5312 5.55823C12.0156 5.79049 11.5 6.13888 10.9844 6.6034C10.4922 7.06792 10.0117 7.62534 9.54293 8.27566C9.09762 8.90276 8.68746 9.5647 8.31246 10.2615C7.9609 10.9582 7.66793 11.6667 7.43355 12.3866C7.19918 13.0835 7.04684 13.7337 6.97652 14.3376C6.90621 14.8719 6.89449 15.499 6.94137 16.2189C6.98824 16.9156 7.09371 17.6357 7.25777 18.3789C7.42184 19.0989 7.63277 19.8073 7.89058 20.504C8.1484 21.2009 8.4648 21.828 8.8398 22.3854C9.23824 22.9195 9.68355 23.3609 10.1758 23.7092C10.668 24.0344 11.2305 24.1854 11.8633 24.1622C12.5664 24.1157 13.2578 23.9066 13.9375 23.535C14.5234 23.2331 15.1211 22.7686 15.7305 22.1415C16.3398 21.4912 16.8672 20.5738 17.3125 19.3892L22.5156 20.3299C21.0156 22.1415 19.5508 23.5002 18.1211 24.406C16.7148 25.3118 15.4492 25.9505 14.3242 26.3221C13.0117 26.7402 11.7695 26.9376 10.5977 26.9144C9.12105 26.7518 7.73824 26.3105 6.44918 25.5906C5.16012 24.8706 4.04684 23.9996 3.10934 22.9776C2.19527 21.9325 1.48043 20.7944 0.964805 19.5634C0.44918 18.3324 0.226523 17.1247 0.296836 15.9402C0.343711 15.1505 0.507773 14.2331 0.789023 13.1879C1.07027 12.1195 1.44527 11.0279 1.91402 9.91304C2.40621 8.79824 2.99215 7.70663 3.67184 6.63824C4.35152 5.56985 5.10152 4.61758 5.92184 3.78145C6.74215 2.9221 7.63277 2.23693 8.59371 1.72596C9.57808 1.19176 10.5977 0.924667 11.6523 0.924667ZM23.3672 11.0977L29.8359 11.1673C29.4609 12.5841 29.1797 13.7918 28.9922 14.7905C28.8281 15.7892 28.7227 16.6254 28.6758 17.299C28.582 18.0654 28.5586 18.7157 28.6055 19.2499C28.6758 19.7376 28.793 20.2602 28.957 20.8177C29.0977 21.2822 29.3086 21.8164 29.5898 22.4202C29.8711 23.0241 30.2461 23.628 30.7148 24.2319C30.4336 24.1389 30.1289 24.0693 29.8008 24.0228C29.4727 23.9763 29.168 23.9415 28.8867 23.9183C28.5586 23.8951 28.2305 23.8951 27.9023 23.9183C27.5742 23.9415 27.2109 23.9763 26.8125 24.0228C26.4844 24.0693 26.0859 24.1273 25.6172 24.197C25.1484 24.2667 24.6562 24.3596 24.1406 24.4758C24.4922 23.4306 24.7617 22.5247 24.9492 21.7583C25.1602 20.9918 25.3125 20.3531 25.4062 19.8422C25.5 19.2383 25.5586 18.7505 25.582 18.3789C25.582 17.9144 25.582 17.3918 25.582 16.8112C25.582 16.2073 25.582 15.6267 25.582 15.0693C25.582 14.5118 25.5703 14.0241 25.5469 13.606C25.5234 13.1647 25.4766 12.886 25.4062 12.7699L25.0547 12.4215C24.9141 12.3053 24.7031 12.1427 24.4219 11.9337C24.1641 11.7014 23.8125 11.4228 23.3672 11.0977ZM25.8633 5.73242C26.3555 5.47694 26.8477 5.40727 27.3398 5.5234C27.8555 5.63952 28.2539 5.86017 28.5352 6.18533C28.8164 6.51049 28.9102 6.89372 28.8164 7.33501C28.7461 7.7763 28.3711 8.20599 27.6914 8.62405C27.0117 9.01889 26.4141 9.15824 25.8984 9.04212C25.3828 8.92599 25.0195 8.68212 24.8086 8.3105C24.5977 7.93889 24.5625 7.50921 24.7031 7.02147C24.8438 6.51049 25.2305 6.08082 25.8633 5.73242ZM33.5703 22.8383C33.7344 22.0719 33.8516 21.3983 33.9219 20.8177C34.0156 20.2138 34.0859 19.7144 34.1328 19.3195C34.1797 18.8551 34.2031 18.4602 34.2031 18.135C34.1797 17.7402 34.1562 17.2757 34.1328 16.7415C34.1328 16.1841 34.1094 15.6383 34.0625 15.104C34.0391 14.5466 34.0039 14.0589 33.957 13.6409C33.9102 13.1995 33.8516 12.886 33.7812 12.7001C33.6875 12.5143 33.5586 12.3169 33.3945 12.1079C33.0664 11.713 32.5859 11.3298 31.9531 10.9582C32.4922 10.8421 32.9492 10.7492 33.3242 10.6796C33.7227 10.5866 34.0508 10.5053 34.3086 10.4357C34.5898 10.3427 34.8359 10.2615 35.0469 10.1918C35.2344 10.1221 35.457 10.0525 35.7148 9.98281C35.9258 9.93633 36.1836 9.87826 36.4883 9.80857C36.793 9.73889 37.1445 9.6576 37.543 9.5647L37.4375 12.735C38.1875 11.8525 38.9492 11.1905 39.7227 10.7492C40.4961 10.3079 41.2227 9.9944 41.9023 9.80857C42.6758 9.57631 43.4375 9.46018 44.1875 9.46018C45.125 9.50664 45.9922 9.6576 46.7891 9.91304C47.6094 10.1686 48.3125 10.4705 48.8984 10.8189C49.5078 11.144 50 11.4925 50.375 11.8641C50.75 12.2357 50.9727 12.5608 51.043 12.8396C51.3242 13.7453 51.3945 14.5815 51.2539 15.3479C51.1133 16.0912 50.9258 16.8228 50.6914 17.5428C50.4805 18.2396 50.293 18.9363 50.1289 19.6331C49.9883 20.3299 50.0469 21.0848 50.3047 21.8976C50.3984 22.1066 50.4922 22.3157 50.5859 22.5247C50.6797 22.7105 50.7969 22.8964 50.9375 23.0822C51.0781 23.268 51.2422 23.419 51.4297 23.535C51.1719 23.5118 50.9141 23.5002 50.6562 23.5002C50.3984 23.477 50.1641 23.4538 49.9531 23.4306C49.6953 23.4073 49.4609 23.3841 49.25 23.3609C49.0156 23.3376 48.6992 23.326 48.3008 23.326C47.6211 23.326 46.5664 23.3609 45.1367 23.4306C45.3477 22.9428 45.5117 22.5363 45.6289 22.2112C45.7695 21.8628 45.8867 21.5841 45.9805 21.375C46.0742 21.1195 46.1445 20.9221 46.1914 20.7828C46.4727 20.1092 46.6367 19.3428 46.6836 18.4835C46.7539 17.6241 46.6953 16.7531 46.5078 15.8706C46.4375 15.5686 46.3203 15.2086 46.1562 14.7905C45.9922 14.3724 45.7695 13.966 45.4883 13.5711C45.2305 13.1763 44.9141 12.8396 44.5391 12.5608C44.1875 12.2822 43.7773 12.1195 43.3086 12.0731C42.8398 12.0267 42.3125 12.1427 41.7266 12.4215C41.1641 12.7002 40.5547 13.2112 39.8984 13.9544C39.4062 14.5815 39.0195 15.3479 38.7383 16.2538C38.4805 17.0202 38.3047 17.9841 38.2109 19.1453C38.1172 20.2835 38.2578 21.6189 38.6328 23.1518C38.3047 23.1053 38 23.0822 37.7188 23.0822C37.4375 23.059 37.2031 23.0357 37.0156 23.0125C36.7812 22.9893 36.5703 22.966 36.3828 22.9428C36.1719 22.9428 35.9375 22.9312 35.6797 22.9079C35.4453 22.9079 35.1523 22.9079 34.8008 22.9079C34.4492 22.8848 34.0391 22.8615 33.5703 22.8383ZM63.2148 21.0615C63.8711 21.0615 64.4805 20.9918 65.043 20.8525C65.5117 20.7363 65.957 20.5505 66.3789 20.2951C66.8242 20.0164 67.1172 19.6099 67.2578 19.0757C67.7266 19.1686 68.125 19.2499 68.4531 19.3195C68.7812 19.366 69.0625 19.4125 69.2969 19.459C69.5547 19.5286 69.7773 19.575 69.9648 19.5983C70.1523 19.6448 70.375 19.6912 70.6328 19.7376C70.8672 19.7841 71.1484 19.8422 71.4766 19.9118C71.8281 19.9583 72.2383 20.028 72.707 20.1208C72.3555 20.0745 71.9922 20.1092 71.6172 20.2254C71.2656 20.3415 70.9258 20.4693 70.5977 20.6086C70.2227 20.7712 69.8711 20.9686 69.543 21.2009C69.332 21.3402 69.0859 21.5492 68.8047 21.828C68.5469 22.1066 68.1719 22.3738 67.6797 22.6293C67.1875 22.8848 66.5312 23.1053 65.7109 23.2912C64.9141 23.4538 63.8828 23.5118 62.6172 23.4654C61.0938 23.419 59.8164 23.1518 58.7852 22.6641C57.7539 22.1531 56.9219 21.5376 56.2891 20.8177C55.6562 20.0745 55.1992 19.2732 54.918 18.4138C54.6367 17.5544 54.4844 16.7531 54.4609 16.0099C54.4375 15.2667 54.6602 14.4886 55.1289 13.6757C55.5977 12.8628 56.2539 12.1195 57.0977 11.446C57.9648 10.7724 59.0078 10.2266 60.2266 9.80857C61.4453 9.36728 62.7812 9.14664 64.2344 9.14664C65.0781 9.14664 65.8516 9.25115 66.5547 9.46018C67.2812 9.64599 67.9375 9.90145 68.5234 10.2266C69.1328 10.5518 69.6602 10.9234 70.1055 11.3414C70.5508 11.7363 70.9258 12.1427 71.2305 12.5608C71.5352 13.0021 71.793 13.4667 72.0039 13.9544C72.1914 14.3724 72.3438 14.8486 72.4609 15.3828C72.5781 15.9169 72.6133 16.4628 72.5664 17.0202C70.7852 17.0667 69.3438 17.1015 68.2422 17.1247C67.1641 17.1479 66.3203 17.1595 65.7109 17.1595H64.1289H62.9336C62.5117 17.1595 61.9609 17.1712 61.2812 17.1944C60.6016 17.2176 59.7695 17.2525 58.7852 17.299C58.9023 18.228 59.1953 18.9479 59.6641 19.459C60.1562 19.9466 60.6719 20.3182 61.2109 20.5738C61.8203 20.8525 62.4883 21.0151 63.2148 21.0615ZM60.0508 14.7905C60.8008 14.837 61.4219 14.8719 61.9141 14.8951C62.4297 14.9182 62.8516 14.9415 63.1797 14.9647C63.5312 14.9879 63.8125 14.9996 64.0234 14.9996H64.9023C65.4883 14.9996 66.5781 14.9647 68.1719 14.8951C68.1016 13.8731 67.8789 13.0951 67.5039 12.5608C67.1523 12.0267 66.7773 11.6318 66.3789 11.3763C65.9102 11.0976 65.3945 10.935 64.832 10.8886C63.3086 10.9118 62.1719 11.2254 61.4219 11.8292C60.6953 12.4331 60.2383 13.4202 60.0508 14.7905ZM87.1289 0.402087C88.3945 0.448538 89.6719 0.680797 90.9609 1.09886C92.2734 1.4937 93.4805 2.14403 94.582 3.04983C95.6836 3.93242 96.6211 5.0821 97.3945 6.49888C98.168 7.89243 98.6484 9.59954 98.8359 11.6202C99 13.2693 98.7891 14.9066 98.2031 16.5324C97.6406 18.135 96.8555 19.6099 95.8477 20.957C94.8398 22.3041 93.6797 23.4538 92.3672 24.406C91.0547 25.335 89.7422 25.9505 88.4297 26.2525C87.6328 26.4383 86.7539 26.4616 85.793 26.3221C84.8555 26.1596 83.8945 25.8693 82.9102 25.4512C81.9492 25.0099 81 24.4525 80.0625 23.7789C79.1484 23.1053 78.3164 22.3389 77.5664 21.4796C76.8164 20.597 76.1836 19.6448 75.668 18.6228C75.1758 17.6009 74.8711 16.5324 74.7539 15.4176C74.6367 14.4886 74.625 13.4667 74.7188 12.3518C74.8359 11.2137 75.0586 10.0873 75.3867 8.97243C75.7383 7.83437 76.2188 6.74275 76.8281 5.69759C77.4609 4.6292 78.2578 3.70016 79.2188 2.91048C80.1797 2.09757 81.3047 1.47047 82.5938 1.02918C83.9062 0.564667 85.418 0.355634 87.1289 0.402087ZM80.8359 14.5118C80.5078 16.997 80.7422 18.9944 81.5391 20.504C82.3594 22.0138 83.5898 22.9312 85.2305 23.2564C86.0273 23.419 86.7891 23.2564 87.5156 22.7686C88.2656 22.2577 88.9453 21.526 89.5547 20.5738C90.1641 19.6215 90.6914 18.5066 91.1367 17.2293C91.582 15.9518 91.9102 14.6163 92.1211 13.2228C92.332 11.8292 92.3438 10.575 92.1562 9.46018C91.9922 8.32212 91.6992 7.35824 91.2773 6.56856C90.8555 5.75565 90.3398 5.12856 89.7305 4.68727C89.1445 4.24597 88.5352 4.0021 87.9023 3.95564C86.8008 3.88597 85.8398 4.17629 85.0195 4.82662C84.1992 5.45371 83.5078 6.27823 82.9453 7.30017C82.3828 8.32212 81.9258 9.47179 81.5742 10.7492C81.2461 12.0267 81 13.2809 80.8359 14.5118ZM101.727 22.8383C101.891 22.0719 102.008 21.3983 102.078 20.8177C102.172 20.2138 102.242 19.7144 102.289 19.3195C102.336 18.8551 102.359 18.4602 102.359 18.135C102.336 17.7402 102.312 17.2757 102.289 16.7415C102.289 16.1841 102.266 15.6383 102.219 15.104C102.195 14.5466 102.16 14.0589 102.113 13.6409C102.066 13.1995 102.008 12.886 101.938 12.7001C101.844 12.5143 101.715 12.3169 101.551 12.1079C101.223 11.713 100.742 11.3298 100.109 10.9582C100.648 10.8421 101.105 10.7492 101.48 10.6796C101.879 10.5866 102.207 10.5053 102.465 10.4357C102.746 10.3427 102.992 10.2615 103.203 10.1918C103.391 10.1221 103.613 10.0525 103.871 9.98281C104.082 9.93633 104.34 9.87826 104.645 9.80857C104.949 9.73889 105.301 9.6576 105.699 9.5647L105.594 12.735C106.344 11.8525 107.105 11.1905 107.879 10.7492C108.652 10.3079 109.379 9.9944 110.059 9.80857C110.832 9.57631 111.594 9.46018 112.344 9.46018C113.281 9.50664 114.148 9.6576 114.945 9.91304C115.766 10.1686 116.469 10.4705 117.055 10.8189C117.664 11.144 118.156 11.4925 118.531 11.8641C118.906 12.2357 119.129 12.5608 119.199 12.8396C119.48 13.7453 119.551 14.5815 119.41 15.3479C119.27 16.0912 119.082 16.8228 118.848 17.5428C118.637 18.2396 118.449 18.9363 118.285 19.6331C118.145 20.3299 118.203 21.0848 118.461 21.8976C118.555 22.1066 118.648 22.3157 118.742 22.5247C118.836 22.7105 118.953 22.8964 119.094 23.0822C119.234 23.268 119.398 23.419 119.586 23.535C119.328 23.5118 119.07 23.5002 118.812 23.5002C118.555 23.477 118.32 23.4538 118.109 23.4306C117.852 23.4073 117.617 23.3841 117.406 23.3609C117.172 23.3376 116.855 23.326 116.457 23.326C115.777 23.326 114.723 23.3609 113.293 23.4306C113.504 22.9428 113.668 22.5363 113.785 22.2112C113.926 21.8628 114.043 21.5841 114.137 21.375C114.23 21.1195 114.301 20.9221 114.348 20.7828C114.629 20.1092 114.793 19.3428 114.84 18.4835C114.91 17.6241 114.852 16.7531 114.664 15.8706C114.594 15.5686 114.477 15.2086 114.312 14.7905C114.148 14.3724 113.926 13.966 113.645 13.5711C113.387 13.1763 113.07 12.8396 112.695 12.5608C112.344 12.2822 111.934 12.1195 111.465 12.0731C110.996 12.0267 110.469 12.1427 109.883 12.4215C109.32 12.7002 108.711 13.2112 108.055 13.9544C107.562 14.5815 107.176 15.3479 106.895 16.2538C106.637 17.0202 106.461 17.9841 106.367 19.1453C106.273 20.2835 106.414 21.6189 106.789 23.1518C106.461 23.1053 106.156 23.0822 105.875 23.0822C105.594 23.059 105.359 23.0357 105.172 23.0125C104.938 22.9893 104.727 22.966 104.539 22.9428C104.328 22.9428 104.094 22.9312 103.836 22.9079C103.602 22.9079 103.309 22.9079 102.957 22.9079C102.605 22.8848 102.195 22.8615 101.727 22.8383ZM131.371 21.0615C132.027 21.0615 132.637 20.9918 133.199 20.8525C133.668 20.7363 134.113 20.5505 134.535 20.2951C134.98 20.0164 135.273 19.6099 135.414 19.0757C135.883 19.1686 136.281 19.2499 136.609 19.3195C136.938 19.366 137.219 19.4125 137.453 19.459C137.711 19.5286 137.934 19.575 138.121 19.5983C138.309 19.6448 138.531 19.6912 138.789 19.7376C139.023 19.7841 139.305 19.8422 139.633 19.9118C139.984 19.9583 140.395 20.028 140.863 20.1208C140.512 20.0745 140.148 20.1092 139.773 20.2254C139.422 20.3415 139.082 20.4693 138.754 20.6086C138.379 20.7712 138.027 20.9686 137.699 21.2009C137.488 21.3402 137.242 21.5492 136.961 21.828C136.703 22.1066 136.328 22.3738 135.836 22.6293C135.344 22.8848 134.688 23.1053 133.867 23.2912C133.07 23.4538 132.039 23.5118 130.773 23.4654C129.25 23.419 127.973 23.1518 126.941 22.6641C125.91 22.1531 125.078 21.5376 124.445 20.8177C123.812 20.0745 123.355 19.2732 123.074 18.4138C122.793 17.5544 122.641 16.7531 122.617 16.0099C122.594 15.2667 122.816 14.4886 123.285 13.6757C123.754 12.8628 124.41 12.1195 125.254 11.446C126.121 10.7724 127.164 10.2266 128.383 9.80857C129.602 9.36728 130.938 9.14664 132.391 9.14664C133.234 9.14664 134.008 9.25115 134.711 9.46018C135.438 9.64599 136.094 9.90145 136.68 10.2266C137.289 10.5518 137.816 10.9234 138.262 11.3414C138.707 11.7363 139.082 12.1427 139.387 12.5608C139.691 13.0021 139.949 13.4667 140.16 13.9544C140.348 14.3724 140.5 14.8486 140.617 15.3828C140.734 15.9169 140.77 16.4628 140.723 17.0202C138.941 17.0667 137.5 17.1015 136.398 17.1247C135.32 17.1479 134.477 17.1595 133.867 17.1595H132.285H131.09C130.668 17.1595 130.117 17.1712 129.438 17.1944C128.758 17.2176 127.926 17.2525 126.941 17.299C127.059 18.228 127.352 18.9479 127.82 19.459C128.312 19.9466 128.828 20.3182 129.367 20.5738C129.977 20.8525 130.645 21.0151 131.371 21.0615ZM128.207 14.7905C128.957 14.837 129.578 14.8719 130.07 14.8951C130.586 14.9182 131.008 14.9415 131.336 14.9647C131.688 14.9879 131.969 14.9996 132.18 14.9996H133.059C133.645 14.9996 134.734 14.9647 136.328 14.8951C136.258 13.8731 136.035 13.0951 135.66 12.5608C135.309 12.0267 134.934 11.6318 134.535 11.3763C134.066 11.0976 133.551 10.935 132.988 10.8886C131.465 10.9118 130.328 11.2254 129.578 11.8292C128.852 12.4331 128.395 13.4202 128.207 14.7905ZM143.543 2.10918C143.988 2.43435 144.434 2.67822 144.879 2.8408C145.348 2.98016 145.77 3.07306 146.145 3.11952C146.566 3.18919 146.988 3.20081 147.41 3.15435C147.809 3.10791 148.219 2.96855 148.641 2.73629C149.062 2.50403 149.555 2.26016 150.117 2.00468C150.68 1.74918 151.336 1.52855 152.086 1.34274C152.859 1.1337 153.785 1.02918 154.863 1.02918C155.332 1.02918 155.824 1.12209 156.34 1.3079C156.879 1.4937 157.395 1.73757 157.887 2.03951C158.379 2.31822 158.824 2.63177 159.223 2.98016C159.645 3.32855 159.961 3.67694 160.172 4.02533C160.406 4.37371 160.57 4.94275 160.664 5.73242C160.758 6.49888 160.793 7.33501 160.77 8.24082C160.746 9.14664 160.664 10.0409 160.523 10.9234C160.406 11.806 160.23 12.526 159.996 13.0835C159.715 13.5711 159.176 14.1983 158.379 14.9647C157.699 15.6151 156.68 16.4512 155.32 17.4732C153.961 18.4951 152.133 19.7144 149.836 21.1312C151.195 21.1079 152.332 21.0732 153.246 21.0267C154.184 20.957 154.945 20.8874 155.531 20.8177C156.211 20.7247 156.75 20.6318 157.148 20.5389C157.5 20.3996 157.875 20.2022 158.273 19.9466C158.602 19.7144 158.953 19.4125 159.328 19.0409C159.727 18.6693 160.113 18.1815 160.488 17.5776C160.559 18.8318 160.629 19.8189 160.699 20.5389C160.746 20.957 160.781 21.317 160.805 21.6189C160.828 21.8977 160.852 22.2228 160.875 22.5944C160.898 22.9195 160.91 23.2912 160.91 23.7092C160.934 24.1273 160.969 24.5686 161.016 25.0332C159.844 24.7312 158.777 24.499 157.816 24.3363C156.855 24.1505 156.035 24.0228 155.355 23.9531C154.559 23.8603 153.844 23.8138 153.211 23.8138C152.555 23.837 151.828 23.8951 151.031 23.988C150.328 24.0809 149.484 24.2202 148.5 24.406C147.539 24.5686 146.449 24.8125 145.23 25.1376C145.137 24.8822 145.055 24.6267 144.984 24.3712C144.914 24.0925 144.855 23.8254 144.809 23.5699C144.738 23.2912 144.68 23.0125 144.633 22.7337C144.586 22.4551 144.539 22.188 144.492 21.9325C144.445 21.7002 144.41 21.4564 144.387 21.2009C144.363 20.9454 144.34 20.7015 144.316 20.4693C146.191 19.2848 147.715 18.2164 148.887 17.2641C150.059 16.2886 150.984 15.4641 151.664 14.7905C152.438 14.0008 153.023 13.2809 153.422 12.6305C153.82 11.8409 154.148 10.9698 154.406 10.0176C154.664 9.06535 154.746 8.18276 154.652 7.36985C154.582 6.55694 154.301 5.89501 153.809 5.38404C153.316 4.84984 152.531 4.61758 151.453 4.68727C150.75 4.73371 150.082 4.97759 149.449 5.41888C148.84 5.86017 148.277 6.39436 147.762 7.02147C147.246 7.64857 146.789 8.32212 146.391 9.04212C145.992 9.73889 145.652 10.4008 145.371 11.0279C145.113 11.6551 144.902 12.1776 144.738 12.5957C144.598 13.0138 144.527 13.2344 144.527 13.2576C144.504 13.304 144.469 13.1298 144.422 12.735C144.398 12.3402 144.363 11.8525 144.316 11.2718C144.293 10.668 144.258 10.0409 144.211 9.3905C144.164 8.74018 144.117 8.19437 144.07 7.75308C144.047 7.40469 144.012 6.95178 143.965 6.39436C143.895 5.48856 143.754 4.06016 143.543 2.10918ZM164.363 5.07049C165.184 4.815 165.852 4.60597 166.367 4.44339C166.883 4.25758 167.305 4.10662 167.633 3.99048C168.008 3.85113 168.289 3.72339 168.477 3.60726L169.32 3.18919C169.648 3.02662 170.07 2.81758 170.586 2.5621C171.102 2.28338 171.77 1.93499 172.59 1.51693C172.402 2.39951 172.262 3.23564 172.168 4.02533C172.098 4.79178 172.039 5.47694 171.992 6.08082C171.922 6.77759 171.887 7.4163 171.887 7.99695C171.863 8.4847 171.828 9.13502 171.781 9.94793C171.758 10.7608 171.723 11.6434 171.676 12.5957C171.629 13.5479 171.582 14.5234 171.535 15.5221C171.488 16.5208 171.453 17.4615 171.43 18.3441C171.43 19.2034 171.441 19.9466 171.465 20.5738C171.512 21.2009 171.594 21.6306 171.711 21.8628C171.828 22.1415 171.98 22.4086 172.168 22.6641C172.332 22.8964 172.52 23.1634 172.73 23.4654C172.965 23.7441 173.246 24.0228 173.574 24.3015C173.035 24.4177 172.531 24.5221 172.062 24.6151C171.594 24.6848 171.184 24.7428 170.832 24.7893C170.41 24.859 170.035 24.917 169.707 24.9634C169.355 24.9867 168.875 25.0448 168.266 25.1376C167.75 25.2073 167.094 25.3002 166.297 25.4164C165.5 25.5092 164.516 25.6138 163.344 25.7299C163.953 25.3583 164.434 24.9983 164.785 24.6499C165.16 24.3015 165.441 23.9996 165.629 23.7441C165.84 23.4422 165.969 23.1518 166.016 22.8732C166.039 22.6874 166.074 22.188 166.121 21.375C166.191 20.5389 166.25 19.5634 166.297 18.4486C166.367 17.3105 166.426 16.1027 166.473 14.8254C166.543 13.5247 166.59 12.3169 166.613 11.2021C166.637 10.0873 166.648 9.13502 166.648 8.34534C166.648 7.55566 166.613 7.07953 166.543 6.91695C166.449 6.75436 166.309 6.56856 166.121 6.35953C165.957 6.17372 165.734 5.9763 165.453 5.76727C165.195 5.55823 164.832 5.32598 164.363 5.07049Z" fill="#394BA7"/>
</svg>
