<svg width="122" height="46" viewBox="0 0 122 46" fill="none" xmlns="http://www.w3.org/2000/svg">
<path d="M8.92188 45.1401C12.6953 45.1401 16.2578 43.282 18.9531 41.4239C20.5 40.3323 21.9531 39.1013 23.3359 37.6846L20.3125 34.5722C17.875 36.9181 13.0469 40.2161 9.29688 40.2161C8.10156 40.2161 7.30469 39.7981 6.34375 38.1026C11.8047 36.6161 15.8359 32.5052 15.8359 28.6729C15.8359 25.1659 13.1641 22.8664 9.67188 22.8664C3.25 22.8664 0.109375 30.2058 0.109375 35.4549C0.109375 40.5877 3.03906 45.1401 8.92188 45.1401ZM5.80469 34.2239C5.80469 32.1568 6.17969 27.3026 10.1875 27.3026C10.9375 27.3026 11.5234 28.3013 11.5234 29.6949C11.5234 31.6458 8.03125 34.2239 5.80469 34.2239ZM27.1875 26.1877C31.5469 20.9387 36.4688 14.0638 36.4688 8.1877C36.4688 3.98382 35.7422 0.546387 30.9844 0.546387C24.6328 0.546387 20.9062 17.2458 19.4062 26.3504C18.6562 30.9026 18.2578 34.6419 18 37.3594C17.8594 38.9388 17.7656 40.3556 17.7188 41.6097C18.8438 42.2833 20.0156 42.8639 21.2578 43.3749C23.3906 44.2807 26.1094 45.1401 28.7578 45.1401H29.3438C29.9297 44.9078 30.4922 44.6755 31.0078 44.42C31.9219 43.9787 32.9297 43.4446 33.4688 42.9104C37.875 41.9117 41.1328 40.5414 44.5781 37.4523L42.7734 33.62C40.2891 36.082 37.9922 37.1272 35.7188 38.451C37.5703 35.6174 37.9688 33.2019 37.9688 30.0665C37.9688 26.3039 35.7891 22.8432 32.1328 22.8432C30.7031 22.8432 29.3203 24.2832 27.5625 26.4432L27.1875 26.1877ZM29.6719 28.1388C32.1328 28.1388 32.7188 29.5091 32.7188 31.0419C32.7188 34.5955 31.3594 40.6807 28.125 40.6807C27.2109 40.6807 26.1797 40.4949 25.2656 40.3091C24.75 40.1929 24.2344 40.0768 23.7188 39.9143C23.7656 39.38 23.8125 38.7994 23.8828 38.1723C24 37.0807 24.1875 35.6639 24.4688 33.9916C25.1484 29.8574 27.4922 28.1388 29.6719 28.1388ZM31.9688 6.86382C31.5 13.4599 27.0234 19.4755 24.4688 24.3529C25.2188 20.2651 28.1953 5.00575 30.7734 5.00575C31.8281 5.00575 31.9688 6.60834 31.9688 6.86382ZM42.7812 38.3581C42.9688 41.3078 43.0156 45.3955 46.6484 45.3955C48.8281 45.3955 51.7578 40.9362 53.5859 37.1968C53.6562 39.5194 55.6719 41.7723 59.0234 41.7723C61.0156 41.7723 63.3125 40.9362 65.375 39.6355V34.1774C64.6953 34.6187 64.0391 35.0368 63.4062 35.3851C62.3047 36.0123 60.9688 36.5697 60.0312 36.5697C57.5 36.5697 56.8672 35.06 56.8672 33.5735C56.8672 32.8536 56.9844 32.18 57.1484 31.6458C57.2188 31.3439 57.3125 31.0652 57.4297 30.7864C58.8125 27.7439 59.7969 26.4897 59.7969 24.7942C59.7969 23.6561 58.6016 22.8432 56.7969 22.8432C55.4375 22.8432 54.2656 23.6329 54.0781 24.4923L47.9141 39.0549L47.5859 39.0781L48.5 24.3762C48.4766 23.5633 47.8672 22.8432 46.8125 22.8432C46.6484 22.8432 46.5312 22.8664 46.3672 22.8897L43.5547 23.331C42.5469 23.4935 42.3594 25.3284 42.3594 28.5104C42.3594 30.9722 42.5469 32.9697 42.7344 37.6148L42.7812 38.3581ZM77.2656 40.7039C77.2656 38.2884 75.9062 36.9414 73.3047 36.9414C70.2812 36.9414 69.0156 39.1246 69.0156 41.3774C69.0156 44.0252 70.5625 45.1401 72.8594 45.1401C77.1953 45.1401 77.2656 41.0988 77.2656 40.7039ZM95.7656 35.4781C93.7031 37.1504 90.1875 40.6807 87.9609 40.6807C87 40.6807 86.7656 39.7981 86.7656 38.4045C86.7656 34.1078 89.9062 26.2342 89.9062 24.1671C89.9062 23.3542 89.5312 22.8432 88.2188 22.8432C86.8125 22.8432 84.3984 23.4935 83.9531 25.0961C82.8281 29.7413 80.7656 36.5465 80.7656 40.4717C80.7656 43.282 81.8672 45.1401 85.125 45.1401C88.7344 45.1401 93.5156 42.2368 95.7656 40.1929V35.4781ZM85.2891 16.3168C85.2891 18.4535 86.5781 19.8471 89.3203 19.8471C92.5078 19.8471 93.8672 17.78 93.8672 15.6896C93.8672 13.3671 92.0625 12.438 89.8828 12.438C86.4141 12.438 85.2891 14.9 85.2891 16.3168ZM104.938 27.5812C105.031 27.4884 105.008 34.1543 105.289 35.4084C104.938 36.3143 104.539 37.1039 104.094 37.8239C103.344 39.0549 102.266 40.2394 101.141 40.2394C98.9609 40.2394 98.5156 38.8691 98.5156 37.6381C98.5156 34.5259 100.789 29.5787 104.938 27.5812ZM120.359 35.2226C119.422 36.0123 118.531 36.7091 117.664 37.3362C116.141 38.4045 114.406 39.4497 113.234 39.4497C111.992 39.4497 111.594 37.8239 111.594 36.0587C111.594 34.6652 111.992 32.8768 112.297 32.0406C115.555 24.2367 119.422 17.8264 120.242 9.04705C120.289 8.46641 120.312 7.90899 120.312 7.37479C120.312 3.82124 119.234 0.546387 116.281 0.546387C110.328 0.546387 105.125 12.2057 104.844 24.1207C97.7188 24.771 92.8906 31.553 92.8906 37.4755C92.8906 41.3543 94.8125 45.1401 98.8438 45.1401C101.703 45.1401 104.633 43.2355 106.953 41.0058C108.453 44.6058 111.312 45.1169 112.18 45.1169C113.727 45.1169 115.953 43.9787 117.781 42.8639C118.859 42.1903 119.961 41.4471 121.062 40.5877L120.359 35.2226ZM115.953 10.7426C115.648 14.0174 114.289 18.198 113.023 21.6354C112.273 23.6329 111.453 25.6303 110.562 27.651V27.4187C110.562 26.4897 110.562 23.8419 110.82 20.7762C111.008 18.5232 112.227 5.93479 115.227 5.93479C115.789 5.93479 116.094 6.49221 116.094 8.16447C116.094 8.79157 116.047 9.65093 115.953 10.7426Z" fill="black"/>
</svg>
