<svg width="74" height="30" viewBox="0 0 74 30" fill="none" xmlns="http://www.w3.org/2000/svg">
<g clip-path="url(#clip0_15389_5148)">
<path d="M34.9772 14.6459V23.405H32.2461V1.77382H39.4894C40.354 1.75546 41.2135 1.91149 42.0185 2.2329C42.8235 2.55432 43.5579 3.03474 44.1795 3.64647C44.8073 4.22105 45.307 4.92571 45.6449 5.7131C45.9829 6.50049 46.1512 7.35237 46.1387 8.21147C46.1567 9.07521 45.9909 9.9327 45.6527 10.7252C45.3146 11.5176 44.812 12.2263 44.1795 12.8026C42.9131 14.0315 41.3495 14.6453 39.4894 14.6441H34.9772V14.6459ZM34.9772 4.43706V11.9879H39.5571C40.0592 12.0031 40.5588 11.9114 41.0241 11.7188C41.4894 11.5262 41.9101 11.2369 42.2592 10.8694C42.6065 10.5258 42.8825 10.1149 43.071 9.66088C43.2595 9.20688 43.3567 8.71903 43.3567 8.22617C43.3567 7.73332 43.2595 7.24547 43.071 6.79146C42.8825 6.33746 42.6065 5.92652 42.2592 5.58294C41.9145 5.20769 41.4953 4.9113 41.0294 4.71339C40.5636 4.51548 40.0617 4.42059 39.5571 4.435H34.9772V4.43676V4.43706ZM52.4319 8.12176C54.4504 8.12176 56.044 8.67059 57.2121 9.76823C58.3802 10.8662 58.9638 12.3712 58.9627 14.2835V23.405H56.3504V21.3512H56.2319C55.1008 23.0424 53.5968 23.8882 51.7197 23.8882C50.1171 23.8882 48.7764 23.405 47.6976 22.4385C47.1799 21.9949 46.766 21.4394 46.4861 20.8123C46.2062 20.1853 46.0672 19.5027 46.0795 18.8141C46.0795 17.2826 46.6483 16.0647 47.7858 15.1603C48.9235 14.2559 50.4423 13.8024 52.342 13.8003C53.9636 13.8003 55.2991 14.1021 56.3487 14.7062V14.0709C56.3518 13.6015 56.2521 13.1373 56.0571 12.712C55.862 12.2867 55.5763 11.9108 55.2208 11.6118C54.4985 10.9487 53.5572 10.5869 52.5845 10.5985C51.0591 10.5985 49.852 11.2532 48.9632 12.5626L46.5579 11.0215C47.8809 9.08823 49.8387 8.12176 52.4319 8.12176ZM48.8987 18.8747C48.8969 19.2283 48.9782 19.5771 49.1357 19.8923C49.2932 20.2074 49.5225 20.4797 49.8043 20.6865C50.4084 21.17 51.1582 21.4261 51.9266 21.4115C53.079 21.4095 54.1836 20.9429 54.9985 20.1138C55.9033 19.2474 56.3553 18.2306 56.3553 17.0638C55.5041 16.3735 54.3166 16.0285 52.7932 16.0285C51.6838 16.0285 50.7588 16.3006 50.0182 16.8447C49.2701 17.3971 48.8987 18.0682 48.8987 18.8744V18.8747ZM73.9578 8.605L64.8387 29.9291H62.0195L65.4036 22.4679L59.407 8.605H62.3757L66.7096 19.2368H66.7691L70.9842 8.605H73.9578Z" fill="#5F6368"/>
<path d="M23.9413 12.7577C23.9425 11.9106 23.8719 11.0656 23.7312 10.2309H12.2129V15.0171H18.8099C18.6749 15.7815 18.3891 16.5102 17.9699 17.1592C17.5506 17.8083 17.0066 18.3642 16.3705 18.7935V21.9H20.3075C22.6128 19.7374 23.941 16.5391 23.941 12.7577H23.9413Z" fill="#4285F4"/>
<path d="M12.2136 24.9015C15.5095 24.9015 18.2848 23.8003 20.3085 21.9018L16.3715 18.795C15.2753 19.5509 13.8641 19.9827 12.2136 19.9827C9.02811 19.9827 6.32422 17.7974 5.35702 14.8532H1.30176V18.0547C2.31828 20.1128 3.87701 21.843 5.80391 23.052C7.73081 24.2611 9.95005 24.9014 12.2139 24.9015H12.2136Z" fill="#34A853"/>
<path d="M5.35761 14.8529C4.84645 13.31 4.84645 11.6391 5.35761 10.0962V6.89471H1.30148C0.446336 8.62611 0.000976563 10.537 0.000976562 12.4747C0.000976563 14.4124 0.446336 16.3233 1.30148 18.0547L5.35703 14.8529H5.35761Z" fill="#FBBC04"/>
<path d="M12.2132 4.96675C13.9549 4.93783 15.6379 5.60745 16.8983 6.83087L20.3844 3.28381C18.1739 1.17124 15.2454 0.0114596 12.2129 0.0476355C9.94904 0.0477696 7.72978 0.688123 5.80288 1.8972C3.87597 3.10629 2.31727 4.83651 1.30078 6.89469L5.35633 10.0962C6.32353 7.15205 9.02742 4.96675 12.2129 4.96675H12.2132Z" fill="#EA4335"/>
</g>
<defs>
<clipPath id="clip0_15389_5148">
<rect width="74" height="30" fill="white"/>
</clipPath>
</defs>
</svg>
