<svg width="80" height="25" viewBox="0 0 80 25" fill="none" xmlns="http://www.w3.org/2000/svg">
<path d="M4.26399 1.60113C4.26399 2.2195 4.25199 2.94489 4.22799 3.7773C4.20399 4.58593 4.17999 5.2043 4.15599 5.6324C4.08399 6.84535 4.04799 8.0583 4.04799 9.27124C4.04799 10.175 4.08399 11.1144 4.15599 12.0896C4.89999 11.0193 5.70399 10.2345 6.56799 9.73502C7.43199 9.23557 8.47599 8.98584 9.69999 8.98584C10.588 8.98584 11.416 9.37827 12.184 10.1631C12.952 10.948 13.444 11.8636 13.66 12.9101C13.732 13.8376 13.768 14.9673 13.768 16.2992C13.768 17.1554 13.816 18.2732 13.912 19.6526C13.96 20.1759 14.092 20.6634 14.308 21.1153C14.548 21.5672 14.884 21.7931 15.316 21.7931C15.532 21.7931 15.7 21.7813 15.82 21.7575C15.964 21.7337 16.096 21.7218 16.216 21.7218C16.552 21.7218 16.78 21.805 16.9 21.9715C17.044 22.138 17.116 22.3758 17.116 22.685C17.116 23.2558 16.828 23.6839 16.252 23.9693C15.676 24.2547 15.148 24.3974 14.668 24.3974C12.94 24.3974 11.752 23.6839 11.104 22.2569C10.744 21.4483 10.516 20.4018 10.42 19.1175C10.324 17.8094 10.276 16.2873 10.276 14.5511C10.276 12.8387 9.68799 11.9825 8.51199 11.9825C7.86399 11.9825 7.20399 12.3274 6.53199 13.0171C5.88399 13.683 5.34399 14.5749 4.91199 15.6927C4.47999 16.7868 4.26399 17.9284 4.26399 19.1175L4.29999 22.8277C4.29999 23.3509 4.09599 23.7434 3.68799 24.005C3.27999 24.2428 2.89599 24.3617 2.53599 24.3617C2.00799 24.3617 1.52799 24.2071 1.09599 23.898C0.663987 23.565 0.447987 23.1964 0.447987 22.792C0.615987 21.0083 0.699987 18.0235 0.699987 13.8376C0.699987 13.0766 0.639987 10.2582 0.519987 5.38267L0.411987 2.10058C0.411987 1.57735 0.651987 1.12547 1.13199 0.744934C1.61199 0.340617 2.15199 0.13846 2.75199 0.13846C3.27999 0.13846 3.66399 0.257375 3.90399 0.495209C4.14399 0.733042 4.26399 1.10168 4.26399 1.60113ZM21.6151 1.31573C22.4551 1.38708 23.1871 1.61302 23.8111 1.99356C24.4351 2.35031 24.7471 2.89732 24.7471 3.6346C24.7471 4.18162 24.4831 4.62161 23.9551 4.95458C23.4511 5.26376 22.8391 5.41835 22.1191 5.41835C21.4231 5.41835 20.9431 5.23997 20.6791 4.88323C20.4151 4.52648 20.2831 4.15784 20.2831 3.7773C20.2831 3.0638 20.3551 2.46922 20.4991 1.99356C20.6671 1.51789 21.0391 1.29195 21.6151 1.31573ZM24.4951 17.1197V18.1543C24.4951 19.0818 24.5191 19.9618 24.5671 20.7942C24.6391 21.6029 24.7231 22.4234 24.8191 23.2558C24.7951 23.4936 24.6151 23.7434 24.2791 24.005C23.9431 24.2428 23.6431 24.3617 23.3791 24.3617C22.9231 24.3617 22.4551 24.2785 21.9751 24.112C21.5191 23.9217 21.2431 23.6958 21.1471 23.4342C21.0031 22.6731 20.9311 21.9953 20.9311 21.4007C20.9311 19.4505 20.8711 17.2624 20.7511 14.8365C20.6551 12.696 20.6071 11.1977 20.6071 10.3415C20.6071 9.91339 20.8231 9.54475 21.2551 9.23557C21.6871 8.92638 22.1431 8.77179 22.6231 8.77179C23.3191 8.77179 23.7991 8.92638 24.0631 9.23557C24.3511 9.54475 24.4951 10.0323 24.4951 10.6982V17.1197ZM36.906 3.2065C36.186 3.2065 35.742 3.80109 35.574 4.99025C35.406 6.60751 35.322 7.83235 35.322 8.66477C35.802 8.71233 36.306 8.73612 36.834 8.73612C37.17 8.73612 37.602 8.71233 38.13 8.66477L39.066 8.62909C39.546 8.62909 39.906 8.71234 40.146 8.87882C40.386 9.0453 40.506 9.31881 40.506 9.69934C40.506 10.2226 40.326 10.6745 39.966 11.055C39.63 11.4117 39.234 11.5901 38.778 11.5901C37.05 11.5901 35.886 11.6734 35.286 11.8398C35.286 13.2906 35.358 15.3479 35.502 18.0116L35.574 19.7597L35.718 22.5423C35.766 23.232 35.694 23.7196 35.502 24.005C35.334 24.2666 34.962 24.3974 34.386 24.3974C33.33 24.3974 32.646 23.7672 32.334 22.5066C32.142 21.5791 31.986 20.2829 31.866 18.6181C31.746 16.9532 31.686 15.4668 31.686 14.1587C31.686 13.469 31.722 12.6841 31.794 11.8042C31.746 11.7804 31.614 11.7685 31.398 11.7685C31.182 11.7685 31.026 11.7804 30.93 11.8042C30.21 11.8517 29.682 11.8755 29.346 11.8755C29.13 11.8755 28.914 11.7328 28.698 11.4474C28.482 11.1382 28.374 10.7696 28.374 10.3415C28.374 10.1037 28.458 9.88961 28.626 9.69934C28.794 9.48529 28.998 9.3307 29.238 9.23557C29.598 9.0453 30.114 8.95017 30.786 8.95017L31.866 8.98584C31.866 5.60862 32.25 3.26596 33.018 1.95788C33.738 0.721151 34.926 0.102783 36.582 0.102783C37.542 0.102783 38.418 0.340616 39.21 0.816284C39.546 1.03033 39.798 1.29195 39.966 1.60113C40.158 1.91032 40.254 2.20761 40.254 2.49301C40.254 2.84975 40.11 3.2184 39.822 3.59893C39.558 3.97946 39.15 4.16973 38.598 4.16973C38.382 4.16973 38.106 4.00324 37.77 3.67028C37.65 3.55136 37.518 3.44434 37.374 3.3492C37.23 3.25407 37.074 3.2065 36.906 3.2065ZM47.5923 18.6894C47.5923 19.5932 47.7243 20.2948 47.9883 20.7942C48.2763 21.2699 48.6363 21.5077 49.0683 21.5077C49.3083 21.5077 49.5363 21.4959 49.7523 21.4721C49.9683 21.4245 50.1843 21.4007 50.4003 21.4007C50.6403 21.4007 50.8443 21.5196 51.0123 21.7575C51.2043 21.9953 51.3003 22.2569 51.3003 22.5423C51.3003 23.1131 51.0243 23.565 50.4723 23.898C49.9443 24.2071 49.2243 24.3617 48.3123 24.3617C47.6643 24.3617 47.0043 24.1715 46.3323 23.7909C45.6843 23.3866 45.1443 22.7683 44.7123 21.9358C44.2803 21.0796 44.0643 20.0213 44.0643 18.7608C44.0643 16.0495 44.1123 13.7544 44.2083 11.8755C44.3283 9.63988 44.3883 6.82156 44.3883 3.42055C44.3883 2.35031 44.4483 1.60113 44.5683 1.17303C44.7123 0.840067 44.9403 0.590343 45.2523 0.423858C45.5883 0.233592 45.9363 0.13846 46.2963 0.13846C46.6563 0.13846 46.9683 0.197918 47.2323 0.316834C47.5203 0.43575 47.7123 0.626017 47.8083 0.887634C47.9043 1.17303 47.9643 1.45843 47.9883 1.74383C48.0363 2.00545 48.0603 2.38598 48.0603 2.88543C48.0603 3.86054 48.0243 4.79998 47.9523 5.70375C47.9043 6.79778 47.8803 7.59452 47.8803 8.09397C47.6883 12.2798 47.5923 15.8116 47.5923 18.6894ZM56.0917 1.31573C56.9317 1.38708 57.6637 1.61302 58.2877 1.99356C58.9117 2.35031 59.2237 2.89732 59.2237 3.6346C59.2237 4.18162 58.9597 4.62161 58.4317 4.95458C57.9277 5.26376 57.3157 5.41835 56.5957 5.41835C55.8997 5.41835 55.4197 5.23997 55.1557 4.88323C54.8917 4.52648 54.7597 4.15784 54.7597 3.7773C54.7597 3.0638 54.8317 2.46922 54.9757 1.99356C55.1437 1.51789 55.5157 1.29195 56.0917 1.31573ZM58.9717 17.1197V18.1543C58.9717 19.0818 58.9957 19.9618 59.0437 20.7942C59.1157 21.6029 59.1997 22.4234 59.2957 23.2558C59.2957 23.5412 59.1277 23.8028 58.7917 24.0407C58.4557 24.2547 58.1437 24.3617 57.8557 24.3617C57.3997 24.3617 56.9317 24.2785 56.4517 24.112C55.9957 23.9217 55.7197 23.6958 55.6237 23.4342C55.4797 22.6731 55.4077 21.9953 55.4077 21.4007C55.4077 19.4505 55.3477 17.2624 55.2277 14.8365C55.1317 12.696 55.0837 11.1977 55.0837 10.3415C55.0837 9.91339 55.2997 9.54475 55.7317 9.23557C56.1637 8.92638 56.6197 8.77179 57.0997 8.77179C57.7957 8.77179 58.2757 8.92638 58.5397 9.23557C58.8277 9.54475 58.9717 10.0323 58.9717 10.6982V17.1197ZM76.1346 8.48639C76.6146 8.48639 76.9866 8.60531 77.2506 8.84314C77.5386 9.05719 77.6826 9.3307 77.6826 9.66367C77.6826 9.9015 77.6346 10.1512 77.5386 10.4128C77.4666 10.6507 77.3826 10.9004 77.2866 11.162C76.7346 12.4463 75.5706 14.2419 73.7946 16.5489C75.6186 18.8797 77.0946 20.378 78.2226 21.044C78.3186 21.0915 78.4986 21.1748 78.7626 21.2937C79.0266 21.4126 79.2306 21.5553 79.3746 21.7218C79.5426 21.8883 79.6266 22.0785 79.6266 22.2926C79.6266 22.8158 79.4226 23.2439 79.0146 23.5769C78.6306 23.8861 78.1626 24.0407 77.6106 24.0407C76.6746 24.0407 75.6546 23.5293 74.5506 22.5066C73.4466 21.4602 72.5106 20.3661 71.7426 19.2245C71.1906 20.057 70.5546 20.8894 69.8346 21.7218C69.1386 22.5304 68.4906 23.2201 67.8906 23.7909C67.6506 24.0526 67.3626 24.2547 67.0266 24.3974C66.7146 24.5401 66.4026 24.6115 66.0906 24.6115C65.6586 24.6115 65.2746 24.5163 64.9386 24.3261C64.6026 24.1358 64.4346 23.8028 64.4346 23.3272C64.4346 23.2082 64.5186 23.018 64.6866 22.7564C64.8546 22.471 64.9506 22.3045 64.9746 22.2569C65.2626 21.7575 65.6466 21.2461 66.1266 20.7229C66.6066 20.1759 66.9066 19.831 67.0266 19.6883C67.3146 19.3316 67.6266 18.9867 67.9626 18.6537C68.1546 18.4397 68.4426 18.1067 68.8266 17.6549C69.2106 17.203 69.4746 16.8462 69.6186 16.5846L68.3586 14.8722C67.7586 14.1825 67.2426 13.6355 66.8106 13.2312C66.3786 12.8031 66.0306 12.589 65.7666 12.589C65.3826 12.589 65.0226 12.696 64.6866 12.9101C64.3986 13.1004 64.1106 13.1955 63.8226 13.1955C63.5106 13.1955 63.2706 13.1241 63.1026 12.9814C62.9346 12.815 62.8506 12.6366 62.8506 12.4463C62.8506 11.6377 63.1746 10.948 63.8226 10.3772C64.4706 9.78258 65.2866 9.48529 66.2706 9.48529C67.2066 9.48529 68.0346 9.80637 68.7546 10.4485C69.4986 11.0669 70.2306 11.8993 70.9506 12.9458C71.0466 13.0409 71.1546 13.1955 71.2746 13.4095C71.3946 13.6236 71.5146 13.802 71.6346 13.9447C71.8986 13.5641 72.3786 12.8268 73.0746 11.7328C73.8186 10.4247 74.2626 9.67556 74.4066 9.48529C74.9106 8.81936 75.4866 8.48639 76.1346 8.48639Z" fill="#D00707"/>
</svg>
