<svg width="92" height="30" viewBox="0 0 92 30" fill="none" xmlns="http://www.w3.org/2000/svg">
<path fill-rule="evenodd" clip-rule="evenodd" d="M31.1859 0.828808H43.0169L43.0247 5.54608L40.1118 5.53833L47.0203 21.8358L53.8121 5.55383H50.8212L50.8134 0.844303L60.2922 0.836561L60.2767 3.5244L48.874 30C46.1246 30.0077 44.3332 29.0162 43.3752 26.9403L33.9898 5.55383H31.1781L31.1859 0.828808ZM14.8998 0C23.1324 0 29.8073 6.68473 29.8073 14.9264C29.8073 23.1681 23.1324 29.845 14.8998 29.845C6.67491 29.845 0 23.1681 0 14.9264C0 6.68473 6.67491 0 14.8998 0ZM14.8608 4.87993C20.0481 4.87993 24.254 9.42679 24.254 15.0348C24.254 20.6429 20.0481 25.182 14.8608 25.182C9.66576 25.182 5.45987 20.6429 5.45987 15.0348C5.45987 9.42679 9.66576 4.87993 14.8608 4.87993ZM77.0924 0C85.3251 0 92 6.68473 92 14.9264C92 23.1681 85.3251 29.845 77.0924 29.845C68.8676 29.845 62.1927 23.1681 62.1927 14.9264C62.1927 6.68473 68.8676 0 77.0924 0ZM77.0535 4.87993C82.2408 4.87993 86.4467 9.42679 86.4467 15.0348C86.4467 20.6429 82.2408 25.182 77.0535 25.182C71.8585 25.182 67.6526 20.6429 67.6526 15.0348C67.6526 9.42679 71.8585 4.87993 77.0535 4.87993Z" fill="#4C3494"/>
</svg>
