<svg width="31" height="37" viewBox="0 0 31 37" fill="none" xmlns="http://www.w3.org/2000/svg">
<g clip-path="url(#clip0_15389_5181)">
<path d="M26.2974 2.88C24.61 0.934191 21.5599 0.0999756 17.6579 0.0999756H6.33324C5.94717 0.09999 5.57378 0.239343 5.28018 0.492981C4.98658 0.746618 4.79204 1.0979 4.73153 1.48368L0.0161428 31.7412C-0.0775838 32.3379 0.379061 32.8782 0.976779 32.8782H7.96825L9.72411 21.6102L9.66961 21.9631C9.79471 21.1666 10.468 20.5791 11.2653 20.5791H14.5876C21.1143 20.5791 26.2248 17.897 27.7177 10.1381C27.762 9.90865 27.8004 9.6853 27.8336 9.4671C27.6451 9.36615 27.6451 9.36615 27.8336 9.4671C28.2781 6.59936 27.8305 4.6473 26.2974 2.88Z" fill="#27346A"/>
<path d="M12.3993 8.43404C12.5904 8.34196 12.7995 8.29424 13.0112 8.29437H21.8896C22.9409 8.29437 23.9215 8.3636 24.8176 8.50951C25.0683 8.54996 25.3178 8.59826 25.5656 8.65433C25.9168 8.73274 26.264 8.8287 26.6058 8.94187C27.0463 9.09073 27.4566 9.26409 27.8337 9.4671C28.2781 6.59825 27.8305 4.6473 26.2974 2.88C24.6091 0.934191 21.5599 0.0999756 17.6579 0.0999756H6.33227C5.53487 0.0999756 4.8565 0.68732 4.73153 1.48368L0.0161434 31.7401C-0.0775831 32.3378 0.379061 32.8773 0.975811 32.8773H7.96825L11.6111 9.50484C11.6469 9.2751 11.7374 9.05762 11.8747 8.87109C12.012 8.68456 12.192 8.53458 12.3993 8.43404Z" fill="#27346A"/>
<path d="M27.7186 10.1381C26.2257 17.8959 21.1153 20.5791 14.5885 20.5791H11.2652C10.4679 20.5791 9.7945 21.1666 9.67062 21.9631L7.48621 35.9734C7.40459 36.4956 7.80372 36.9688 8.32587 36.9688H14.2195C14.5571 36.9687 14.8836 36.8467 15.1403 36.6248C15.3969 36.4029 15.567 36.0957 15.6197 35.7583L15.6771 35.4545L16.7879 28.3318L16.8595 27.9382C16.9122 27.6008 17.0822 27.2936 17.3389 27.0717C17.5955 26.8498 17.922 26.7278 18.2596 26.7277H19.1416C24.8508 26.7277 29.3212 24.381 30.6276 17.5941C31.1729 14.7579 30.8907 12.3899 29.4483 10.7266C29.0107 10.2228 28.4674 9.80672 27.8344 9.4671C27.8002 9.68641 27.763 9.90865 27.7186 10.1381Z" fill="#2790C3"/>
<path d="M26.2715 8.83688C26.0388 8.76811 25.8038 8.70723 25.567 8.65433C25.3191 8.59918 25.0696 8.55121 24.819 8.5105C23.9219 8.3636 22.942 8.29425 21.8897 8.29425H13.0125C12.8006 8.29377 12.5914 8.3419 12.4006 8.43503C12.1931 8.53525 12.0128 8.68515 11.8755 8.87173C11.7381 9.05831 11.6478 9.27596 11.6123 9.50582L9.72539 21.6102L9.6709 21.9631C9.79502 21.1666 10.4683 20.5791 11.2657 20.5791H14.589C21.1157 20.5791 26.2261 17.897 27.719 10.1381C27.7634 9.90865 27.8007 9.68629 27.835 9.46711C27.4569 9.2652 27.0477 9.09073 26.6071 8.94286C26.4959 8.90556 26.3841 8.87023 26.2716 8.83688" fill="#1F264F"/>
</g>
<defs>
<clipPath id="clip0_15389_5181">
<rect width="31" height="37" fill="white"/>
</clipPath>
</defs>
</svg>
