<svg width="20" height="17" viewBox="0 0 20 17" fill="none" xmlns="http://www.w3.org/2000/svg">
<path d="M6.50997 16.4988H6.42997C4.81833 16.4848 3.22999 16.1159 1.77997 15.4187C1.51324 15.2945 1.29363 15.089 1.15327 14.8322C1.01292 14.5754 0.959196 14.2809 0.999969 13.9917C1.04431 13.7005 1.18036 13.4306 1.38868 13.2206C1.59699 13.0107 1.86694 12.8712 2.15997 12.8223C3.05858 12.7035 3.92306 12.4034 4.69997 11.9404C3.35113 10.8953 2.31272 9.50811 1.69479 7.92576C1.07686 6.34341 0.902421 4.62488 1.18997 2.95228C1.22896 2.68734 1.34393 2.43909 1.52122 2.23705C1.6985 2.03502 1.93063 1.88771 2.18997 1.81266C2.44228 1.73414 2.71232 1.73078 2.96654 1.80301C3.22076 1.87524 3.44797 2.01988 3.61997 2.21896C4.20397 2.97783 4.93786 3.61084 5.77687 4.07937C6.61589 4.5479 7.54242 4.84214 8.49997 4.94412C8.54571 3.77662 9.05201 2.67353 9.90997 1.87212C10.3384 1.4656 10.8441 1.14763 11.3978 0.936752C11.9514 0.725871 12.5419 0.626291 13.1348 0.643815C13.7276 0.661339 14.3111 0.795617 14.8511 1.03882C15.391 1.28203 15.8768 1.6293 16.28 2.0604C16.385 2.15243 16.5155 2.21108 16.6546 2.22875C16.7937 2.24642 16.9349 2.2223 17.06 2.1595C17.2984 2.04806 17.5639 2.00611 17.8255 2.03855C18.0871 2.07098 18.3339 2.17646 18.5373 2.34268C18.7407 2.50889 18.8922 2.729 18.9741 2.9773C19.056 3.22561 19.065 3.49188 19 3.74505C18.7693 4.68659 18.3323 5.56625 17.72 6.32157C17.585 9.14063 16.3308 11.7925 14.2309 13.699C12.131 15.6054 9.35563 16.6119 6.50997 16.4988ZM6.50997 14.5169H6.58997C7.75264 14.5565 8.91168 14.367 9.9999 13.9594C11.0881 13.5518 12.0839 12.9342 12.9294 12.1424C13.7749 11.3506 14.4535 10.4003 14.9256 9.34669C15.3978 8.29306 15.6542 7.15703 15.68 6.00446C15.6965 5.68859 15.8279 5.38935 16.05 5.16214C16.2939 4.85617 16.5019 4.52371 16.67 4.17117C16.3097 4.17185 15.9534 4.09717 15.6242 3.95202C15.2951 3.80687 15.0006 3.59452 14.76 3.32884C14.5286 3.10147 14.2537 2.92213 13.9515 2.80132C13.6493 2.6805 13.3258 2.62065 13 2.62526C12.6709 2.61682 12.3433 2.67289 12.0362 2.79023C11.729 2.90757 11.4482 3.08387 11.21 3.30903C10.8886 3.61127 10.6529 3.99187 10.5265 4.41273C10.4002 4.8336 10.3876 5.27996 10.49 5.70717L10.75 6.83688L9.57997 6.91615C8.38106 7.01303 7.17523 6.85052 6.04598 6.43985C4.91673 6.02919 3.89105 5.3802 3.03997 4.53783C3.00347 5.84234 3.33277 7.13132 3.99126 8.26147C4.64976 9.39161 5.61164 10.3186 6.76997 10.9395L7.71997 11.4746L7.08997 12.3665C6.40866 13.2519 5.47515 13.9147 4.40997 14.2691C5.09328 14.4389 5.79554 14.5221 6.49997 14.5169H6.50997Z" fill="#6E7191"/>
</svg>
