<svg width="80" height="26" viewBox="0 0 80 26" fill="none" xmlns="http://www.w3.org/2000/svg">
<path d="M41.3741 8.27865C41.3284 11.8861 44.5813 13.899 47.0316 15.096C49.5491 16.3239 50.3947 17.1114 50.3847 18.2097C50.3659 19.8903 48.3766 20.6321 46.515 20.6609C43.2672 20.7113 41.3787 19.7819 39.8775 19.079L38.7075 24.5669C40.2137 25.2626 43.0028 25.8694 45.895 25.896C52.6841 25.896 57.1256 22.5367 57.1497 17.3282C57.1763 10.7179 48.0284 10.3521 48.0909 7.39746C48.1125 6.50156 48.9653 5.54552 50.8341 5.30243C51.7591 5.17964 54.3125 5.08566 57.2075 6.422L58.3438 1.11236C56.7869 0.544117 54.7859 -3.8147e-06 52.2947 -3.8147e-06C45.9047 -3.8147e-06 41.4103 3.40506 41.3741 8.27865ZM69.2619 0.457346C68.0222 0.457346 66.9775 1.18221 66.5112 2.29457L56.8134 25.506H63.5975L64.9475 21.7661H73.2375L74.0206 25.506H80L74.7822 0.457346H69.2619ZM70.2109 7.22392L72.1687 16.63H66.8069L70.2109 7.22392ZM33.1488 0.457659L27.8012 25.5057H34.2659L39.6109 0.457031H33.1488V0.457659ZM23.5853 0.457031L16.8566 17.5065L14.1347 3.01004C13.8153 1.39178 12.5541 0.457346 11.1534 0.457346H0.154062L0 1.18472C2.25812 1.6759 4.82375 2.46812 6.37813 3.31578C7.32937 3.83359 7.60063 4.28624 7.91313 5.5167L13.0684 25.506H19.9L30.3737 0.457346H23.5853" fill="url(#paint0_linear_15389_5155)"/>
<defs>
<linearGradient id="paint0_linear_15389_5155" x1="36.7792" y1="26.4155" x2="37.5306" y2="-0.18" gradientUnits="userSpaceOnUse">
<stop stop-color="#222357"/>
<stop offset="1" stop-color="#254AA5"/>
</linearGradient>
</defs>
</svg>
