<svg width="28" height="26" viewBox="0 0 28 26" fill="none" xmlns="http://www.w3.org/2000/svg">
<path d="M26.9206 21.7188L16.1172 1.83884C15.9022 1.44264 15.5842 1.11183 15.1968 0.88131C14.8094 0.650792 14.3669 0.529114 13.9161 0.529114C13.4653 0.529114 13.0229 0.650792 12.6355 0.88131C12.2481 1.11183 11.9301 1.44264 11.715 1.83884L0.919451 21.7188C0.705969 22.1011 0.596427 22.5326 0.601747 22.9704C0.607068 23.4082 0.727066 23.837 0.949775 24.2139C1.17248 24.5909 1.49012 24.9029 1.87101 25.1188C2.25191 25.3347 2.68274 25.4469 3.12056 25.4444H24.7194C25.1528 25.444 25.5786 25.3311 25.9553 25.1168C26.332 24.9025 26.6466 24.5941 26.8684 24.2218C27.0902 23.8495 27.2116 23.426 27.2208 22.9928C27.2299 22.5595 27.1265 22.1313 26.9206 21.75V21.7188ZM12.9206 6.77773C12.9206 6.48894 13.0353 6.21197 13.2395 6.00777C13.4437 5.80356 13.7207 5.68884 14.0094 5.68884C14.2982 5.68884 14.5752 5.80356 14.7794 6.00777C14.9836 6.21197 15.0983 6.48894 15.0983 6.77773V16.1111C15.0983 16.3999 14.9836 16.6768 14.7794 16.881C14.5752 17.0852 14.2982 17.2 14.0094 17.2C13.7207 17.2 13.4437 17.0852 13.2395 16.881C13.0353 16.6768 12.9206 16.3999 12.9206 16.1111V6.77773ZM14.0094 22.2166C13.7326 22.2166 13.4619 22.1345 13.2317 21.9807C13.0014 21.8268 12.822 21.6082 12.716 21.3524C12.6101 21.0966 12.5823 20.8151 12.6364 20.5435C12.6904 20.2719 12.8237 20.0225 13.0195 19.8267C13.2153 19.6309 13.4648 19.4975 13.7363 19.4435C14.0079 19.3895 14.2894 19.4172 14.5452 19.5232C14.801 19.6291 15.0197 19.8086 15.1735 20.0388C15.3273 20.269 15.4094 20.5397 15.4094 20.8166C15.4094 21.0005 15.3732 21.1825 15.3029 21.3524C15.2325 21.5222 15.1294 21.6766 14.9994 21.8066C14.8694 21.9366 14.7151 22.0397 14.5452 22.1101C14.3753 22.1804 14.1933 22.2166 14.0094 22.2166Z" fill="#F4B740"/>
</svg>
