<svg width="24" height="18" viewBox="0 0 24 18" fill="none" xmlns="http://www.w3.org/2000/svg">
<path d="M22.54 3.60811C22.4212 3.1378 22.1792 2.70689 21.8386 2.3589C21.498 2.0109 21.0707 1.75815 20.6 1.62617C18.88 1.20996 12 1.20996 12 1.20996C12 1.20996 5.11996 1.20996 3.39996 1.66581C2.92921 1.79779 2.50194 2.05054 2.16131 2.39854C1.82068 2.74653 1.57875 3.17744 1.45996 3.64775C1.14518 5.37754 0.991197 7.13231 0.999961 8.88998C0.988741 10.6609 1.14273 12.429 1.45996 14.1719C1.59092 14.6276 1.83827 15.0421 2.17811 15.3754C2.51794 15.7087 2.93878 15.9495 3.39996 16.0745C5.11996 16.5304 12 16.5304 12 16.5304C12 16.5304 18.88 16.5304 20.6 16.0745C21.0707 15.9425 21.498 15.6898 21.8386 15.3418C22.1792 14.9938 22.4212 14.5629 22.54 14.0926C22.8523 12.3758 23.0063 10.6344 23 8.88998C23.0112 7.11907 22.8572 5.35093 22.54 3.60811V3.60811Z" stroke="#6E7191" stroke-width="2" stroke-linecap="round" stroke-linejoin="round"/>
<path d="M9.75 12.1304L15.5 8.88989L9.75 5.64941V12.1304Z" stroke="#6E7191" stroke-width="2" stroke-linecap="round" stroke-linejoin="round"/>
</svg>
